<svg xmlns="http://www.w3.org/2000/svg" width="158" height="53" viewBox="0 0 158 53" fill="none"><g clip-path="url(#clip0_380_1354)"><g clip-path="url(#clip1_380_1354)"><path d="M92.414 17.8762C92.2525 16.6429 91.9028 15.4416 91.3771 14.3143C89.4257 10.1279 85.1802 7.22705 80.2572 7.22705H65.6797V45.03H73.2228V31.7488H80.2572C85.1802 31.7488 89.4257 28.8481 91.3771 24.6615C91.9754 23.3792 92.3452 22.0022 92.4697 20.5927C92.5511 19.6879 92.5324 18.7769 92.414 17.8762ZM79.6791 24.6615H73.2228V14.3143H79.6791C81.9732 14.3143 83.9186 15.8085 84.5962 17.8762C84.7665 18.3965 84.8531 18.9406 84.8528 19.488C84.8528 22.3449 82.5362 24.6615 79.6791 24.6615ZM101.872 17.0085V45.03H94.3305V19.6586L99.4015 17.8762L101.872 17.0085ZM155.958 30.752V45.0291H148.483V30.524C148.483 27.8996 146.357 25.7716 143.732 25.7716C141.108 25.7716 138.981 27.8996 138.981 30.524V45.0291H131.438V17.8753H138.981V19.537C140.476 18.9144 142.08 18.5948 143.699 18.5968C145.371 18.5968 147.013 18.9424 148.483 19.5641C152.848 21.416 155.918 25.7233 155.958 30.752ZM128.759 30.752V45.0291H121.284V30.524C121.284 27.8996 119.157 25.7716 116.533 25.7716C113.908 25.7716 111.782 27.8996 111.782 30.524V45.0291H104.239V17.8753H111.782V19.537C113.277 18.9144 114.88 18.5948 116.5 18.5968C118.172 18.5968 119.814 18.9424 121.284 19.5641C125.648 21.416 128.718 25.7233 128.759 30.752Z" fill="white"></path><path d="M8.9741 33.3285L10.7093 35.1359L16.4888 29.176L13.7797 26.4668L34.7301 6.78056L28.5895 0.0980225L9.19263 19.0991C5.23088 22.98 5.13341 29.3275 8.9741 33.3285Z" fill="url(#paint0_linear_380_1354)"></path><path d="M48.381 19.6052L46.6458 17.7976L40.8664 23.7576L43.5754 26.4667L22.625 46.153L28.7657 52.8355L48.1625 33.8345C52.1244 29.9535 52.2219 23.606 48.381 19.6052Z" fill="url(#paint1_linear_380_1354)"></path></g></g><defs><linearGradient id="paint0_linear_380_1354" x1="36.3557" y1="-18.5044" x2="21.9892" y2="32.159" gradientUnits="userSpaceOnUse"><stop stop-color="#FFBA8E"></stop><stop offset="1" stop-color="#FF6600"></stop></linearGradient><linearGradient id="paint1_linear_380_1354" x1="20.9996" y1="71.438" x2="35.3659" y2="20.7745" gradientUnits="userSpaceOnUse"><stop stop-color="#FFBA8E"></stop><stop offset="1" stop-color="#FF6600"></stop></linearGradient><clipPath id="clip0_380_1354"><rect width="158" height="53" fill="white"></rect></clipPath><clipPath id="clip1_380_1354"><rect width="153.918" height="53" fill="white" transform="translate(2.03906)"></rect></clipPath></defs></svg>